# xmcd CD database file
#
# Track frame offsets:
#	150
#	16170
#	40966
#	51579
#	71937
#	82286
#	93875
#	111803
#	132926
#	160878
#	175303
#
# Disc length: 2474 seconds
#
# Revision: 0
# Processed by: cddbd v1.5.1PL0 Copyright (c) Steve Scherf et al.
# Submitted via: CDex 1.51
#
DISCID=9909a80b
DTITLE=The Texas Instruments Jazz Band - Jazz Bytes - Version 1.0
DYEAR=1999
DGENRE=Jazz
TTITLE0=In The Mood
TTITLE1=Until I Met You (Corner Pocket)
TTITLE2=Orange Colored Sky
TTITLE3=All of Me
TTITLE4=Candy
TTITLE5=Jump, Jive, An' Wail
TTITLE6=Quincy and The Count
TTITLE7=Things Ain't What They Used To Be
TTITLE8=Route 66
TTITLE9=Alright, Okay, You Win
TTITLE10=Almost Like Being In Love
EXTD=YEAR: 1999
EXTT0=
EXTT1=
EXTT2=
EXTT3=
EXTT4=
EXTT5=
EXTT6=
EXTT7=
EXTT8=
EXTT9=
EXTT10=
PLAYORDER=
